<svg xmlns="http://www.w3.org/2000/svg" viewBox="0 0 987 987"><defs><style>.a,.b,.c{fill:none;stroke-linecap:round;stroke-miterlimit:10;stroke-width:25px;}.a{stroke:#2c82bd;}.b{stroke:#53a3da;}.c{stroke:#06acd7;}</style></defs><title>van gronigen logo 2019 svg</title><path class="a" d="M732.59,596.77c12.4-7.15,20.39-28.58,19.21-38.63,0-36.36-32.83-53.21-69.2-53.21h0a71.73,71.73,0,0,0-71.73,71.73V585A127.34,127.34,0,0,0,738.21,712.3h0c81.75,0,148-99,148-180.76v9.29c0-94.59-76.67-180.55-171.25-180.55,0,0-95.67-6.53-193.69,132.75L452.22,599.31c-23.68,33.25-67.17,85-104.07,102.43-37.69,17.82-87.57,29.19-146.54,14.13" transform="translate(-6.5 -6.5)"/><path class="b" d="M813.74,242c-140.12-61.53-245.15-11-304.54,46a413.52,413.52,0,0,0-56.41,67.34L375,470.7c-6.42,9.54-12.65,19.21-18.52,29.1C297.66,599,224.22,591,224.22,591c-69,0-110.45-52.48-110.45-121.45h0c0-51.32,40.15-81.41,77.67-81.41h0a63.69,63.69,0,0,1,63.69,63.69v7.45a43.94,43.94,0,0,1-13.33,31.05l-5.16,5.06" transform="translate(-6.5 -6.5)"/><path class="c" d="M500,19c265.65,0,481,215.35,481,481S765.65,981,500,981" transform="translate(-6.5 -6.5)"/><path class="c" d="M500,981C234.35,981,19,765.65,19,500S234.35,19,500,19" transform="translate(-6.5 -6.5)"/></svg>